<svg xmlns="http://www.w3.org/2000/svg" version="1.1" viewBox="0 0 48 48">
  <g>
    <path fill="#E5D9D9"
		  d="M9 14v4c-4.97 0-9-4.03-9-9s4.03-9 9-9 9 4.03 9 9h-4l-5 5z" />
    <path fill="#D0B9B9"
		  d="M30 9c0-4.97 4.03-9 9-9s9 4.03 9 9-4.03 9-9 9v-4l-5-5h-4zm9 21c4.97 0 9 4.03 9 9s-4.03 9-9 9-9-4.03-9-9h4l5-5v-4z" />
    <path fill="#E5D9D9"
		  d="M18 39c0 4.97-4.03 9-9 9s-9-4.03-9-9 4.03-9 9-9v4l5 5h4z" />
    <path fill="#FF5954"
		  d="M24 0C10.75 0 0 10.75 0 24s10.75 24 24 24 24-10.75 24-24c0-6.37-2.53-12.47-7.03-16.97C36.47 2.53 30.37 0 24 0zm0 36c-6.63 0-12-5.37-12-12s5.37-12 12-12 12 5.37 12 12c0 6.62-5.38 12-12 12z" />
    <path fill="#FF9067"
		  d="M44.08 32.77c1 1 1.16 2.55.4 3.74-1.98 3.26-4.72 6-7.97 8-1.18.74-2.73.57-3.73-.42-.65-.66-.96-1.6-.84-2.5.12-.93.66-1.74 1.46-2.2 2.42-1.5 4.47-3.56 5.97-6 .47-.8 1.28-1.33 2.2-1.45.92-.12 1.85.2 2.5.84zM19 4.47v.16c0 1.2-.75 2.27-1.86 2.72-4.42 1.83-7.94 5.34-9.78 9.76v.03C6.9 18.25 5.83 19 4.63 19h-.17c-.97 0-1.88-.48-2.43-1.28-.54-.8-.66-1.82-.3-2.73C4.2 8.96 8.97 4.2 15 1.73c.9-.36 1.92-.24 2.72.3.8.55 1.28 1.46 1.28 2.43z" />
    <path fill="#DD4342"
		  d="M24 6C14.06 6 6 14.06 6 24s8.06 18 18 18 18-8.06 18-18S33.94 6 24 6zm0 30c-6.63 0-12-5.37-12-12s5.37-12 12-12 12 5.37 12 12c0 6.62-5.38 12-12 12z" />
    <path fill="#E5D9D9"
		  d="M2.88 7.12l4.24-4.24 38 38-4.24 4.24z" />
    <path fill="#FEEAE8"
		  d="M2.88 7.12l4.24-4.24 19 19-4.24 4.24z" />
    <path fill="#FEEAE8"
		  d="M7.12 45.12l-4.24-4.24 38-38 4.24 4.24z" />
    <path fill="#E5D9D9"
		  d="M17.9 13.67c-1.74 1.03-3.2 2.5-4.23 4.24L9.34 13.6c1.16-1.64 2.6-3.08 4.24-4.24l4.33 4.33z" />
    <path fill="#FEEAE8"
		  d="M38.66 34.42c-1.16 1.64-2.6 3.08-4.24 4.24l-4.33-4.33c1.74-1.03 3.2-2.5 4.23-4.24l4.33 4.32z" />
    <path fill="#E5D9D9"
		  d="M17.9 34.33l-4.32 4.33c-1.64-1.16-3.08-2.6-4.24-4.24l4.33-4.33c1.03 1.74 2.5 3.2 4.24 4.23zm20.76-20.75l-4.33 4.33c-1.03-1.74-2.5-3.2-4.24-4.23l4.32-4.33c1.64 1.16 3.08 2.6 4.24 4.24z" />
  </g>
</svg>