<svg xmlns="http://www.w3.org/2000/svg" version="1.1" viewBox="0 0 48 48">
	<g>
		<path fill="#FFC520"
			  d="M24 48c-3.1 0-5.57-2.93-8.26-4.04-2.8-1.16-6.6-.9-8.7-3-2.1-2.1-1.84-5.9-3-8.7C2.94 29.56 0 27.1 0 24c0-3.1 2.93-5.57 4.04-8.26 1.16-2.8.9-6.6 3-8.7 2.1-2.1 5.9-1.84 8.7-3C18.44 2.94 20.9 0 24 0c3.1 0 5.57 2.93 8.26 4.04 2.8 1.16 6.6.9 8.7 3 2.1 2.1 1.84 5.9 3 8.7C45.06 18.44 48 20.9 48 24c0 3.1-2.93 5.57-4.04 8.26-1.16 2.8-.9 6.6-3 8.7-2.1 2.1-5.9 1.84-8.7 3C29.56 45.06 27.1 48 24 48z" />
		<path fill="#FFAC00"
			  d="M40.97 40.97c-2.18 2.2-6 1.87-8.7 2.98-2.8 1.16-5.3 4.03-8.27 4.03-2.97 0-5.48-2.87-8.27-4.03-2.7-1.1-6.52-.8-8.7-2.98-2.2-2.18-1.87-6-2.98-8.7C2.9 29.47 0 26.97 0 24c0-2.97 2.9-5.48 4.05-8.27 1.1-2.7.8-6.52 2.98-8.7 2.18-2.2 6-1.87 8.7-2.98C18.53 2.9 21.03 0 24 0c2.97 0 5.48 2.9 8.27 4.05 2.7 1.1 6.52.8 8.7 2.98 2.2 2.18 1.87 6 2.98 8.7 1.16 2.8 4.03 5.3 4.04 8.27 0 2.97-2.9 5.48-4.05 8.27-1.1 2.7-.8 6.52-2.98 8.7z" />
		<path fill="#FFC811"
			  d="M37.9 10.1L10.1 37.9c-.77.77-1.92 1.06-2.98.74-1.06-.32-1.86-1.2-2.08-2.28-.2-1.4-.53-2.76-1-4.1C2.9 29.5.02 26.97.02 24c0-2.97 2.9-5.48 4.05-8.27 1.1-2.7.8-6.52 2.98-8.7 2.18-2.2 6-1.87 8.7-2.98C18.53 2.9 21.03 0 24 0c2.97 0 5.48 2.9 8.27 4.05 1.33.46 2.7.8 4.1 1 1.08.2 1.95 1 2.27 2.07.32 1.06.03 2.2-.75 3z" />
		<circle fill="#FFAC00" cx="24" cy="24" r="18" />
		<path fill="#ED8D00"
			  d="M35.32 10.7c.53 0 1.04.2 1.42.58 4.54 4.55 6.32 11.18 4.66 17.4-1.67 6.2-6.52 11.05-12.73 12.72-6.2 1.66-12.84-.12-17.4-4.66-.77-.78-.77-2.05 0-2.83.8-.77 2.06-.77 2.84 0 3.55 3.54 8.7 4.93 13.53 3.63 4.83-1.3 8.6-5.07 9.9-9.9 1.3-4.83-.1-9.98-3.62-13.52-.56-.56-.74-1.42-.43-2.17.3-.75 1.04-1.23 1.85-1.23z" />
		<circle fill="#FFC811" cx="24" cy="23.98" r="13.98" />
		<path fill="#904D21"
			  d="M23 31.54c-.57 0-1.12-.2-1.56-.55l-5-4.04c-1.1-.87-1.26-2.44-.4-3.52.87-1.07 2.45-1.24 3.52-.38l3.05 2.46 6.44-8.08c.86-1.08 2.44-1.25 3.52-.4 1.08.87 1.26 2.44.4 3.52l-8 10.04c-.4.52-1.02.85-1.68.92l-.28.02z" />
		<path fill="#FFEC54"
			  d="M21 14.65v.16c0 1-.48 1.9-1.3 2.44-.7.45-1.35 1.02-1.9 1.67-.52.68-1.32 1.08-2.18 1.1h-.25c-1.1 0-2.13-.63-2.63-1.63-.5-1-.37-2.2.3-3.08.97-1.22 2.12-2.26 3.4-3.1.9-.58 2.07-.63 3-.12.96.5 1.56 1.5 1.56 2.57zm7 17.96v-.12c.02-.9.44-1.76 1.16-2.33.36-.3.7-.63 1-1 .56-.7 1.4-1.13 2.32-1.15h.13c1.15 0 2.18.66 2.66 1.7.5 1.02.34 2.24-.4 3.12-.6.75-1.3 1.44-2.04 2.05-.88.72-2.1.88-3.13.4-1.04-.5-1.7-1.52-1.7-2.66z" />
	</g>
</svg>
