<svg xmlns="http://www.w3.org/2000/svg" version="1.1" viewBox="0 0 48 48">
  <g fill-rule="evenodd">
    <path fill="#F56"
		  d="M24 4.4C30.05.6 38.15 1.32 43.4 6.58c3.07 3.06 4.6 7.07 4.6 11.08 0 .32 0 1.64-.03 1.95-.7 13.56-13.82 23.25-22.5 25.95-.5.18-1 .27-1.54.27-.6 0-1.16-.12-1.68-.33C13.55 42.7.7 33.05.03 19.6 0 19.27 0 17.96 0 17.65c0-4 1.53-8.02 4.6-11.07 5.25-5.28 13.35-6 19.4-2.2z" />
    <path fill="#EE2F65"
		  d="M24.02 4.38c6.05-3.8 14.13-3.06 19.4 2.2C46.46 9.64 48 13.66 48 17.66c0 .32 0 1.64-.03 1.95-.7 13.56-13.82 23.25-22.5 25.95-.47.17-.96.26-1.47.27 2.46-.1 4.43-2.14 4.43-4.63 0-2.5-1.97-4.53-4.43-4.64h-.3c-1.8 0-3.27-1.47-3.27-3.28 0-1.8 1.47-3.28 3.28-3.28H28c2.76 0 5-2.24 5-5s-2.24-5-5-5h-6.72c-1.8 0-3.28-1.47-3.28-3.28 0-1.8 1.47-3.28 3.28-3.28h.15c2.6-.17 4.68-2.35 4.68-5 0-1.67-.8-3.15-2.08-4.06z" />
    <path fill="#FFD3C1" fill-opacity=".37"
		  d="M19 9c0-1.66-1.34-3-3-3h-2c-1.66 0-3 1.34-3 3s1.34 3 3 3h2c1.66 0 3-1.34 3-3z" />
    <path fill="#FFD3C1" fill-opacity=".19"
		  d="M18.4 25c0-2.76-2.23-5-5-5H11c-2.76 0-5 2.24-5 5s2.24 5 5 5h2.4c2.77 0 5-2.24 5-5z" />
    <path fill="#FC5A67"
		  d="M36 8.5C36 7.12 34.88 6 33.5 6h-1C31.12 6 30 7.12 30 8.5s1.12 2.5 2.5 2.5h1c1.38 0 2.5-1.12 2.5-2.5z" />
  </g>
</svg>