<svg xmlns="http://www.w3.org/2000/svg" version="1.1" viewBox="0 0 48 48">
  <g fill="none" fill-rule="evenodd" transform="translate(1 1)">
    <path fill="#DB814F"
		  d="M45.5 45.5c2-2 2-5.27 0-7.27l-5.97-5.97c-2-2-2.4.58-4.4 2.58-2 2-4.87 2.68-2.87 4.7l5.97 5.96c2 2 5.26 2 7.27 0z" />
    <path fill="#AA5634"
		  d="M39.4 46.38c-.4-.23-.8-.52-1.17-.88l-.42-.42c.05-.07.08-.15.1-.23.7-1.65 1.13-3.47.96-5.27-.05-.58-.16-1.15-.34-1.7-.12-.4-.28-.76-.43-1.14l-.18-.46c-.16-.46-.32-.9-.45-1.38-.23-.78-.4-1.56-.54-2.36.6-.8 1.1-1.27 1.9-.84 0 .13.03.27.05.4.17 1.05.43 2.08.77 3.08.16.48.35.95.54 1.43l.12.34.2.66c.14.48.24.97.3 1.47.05.37.07.75.08 1.13.04 2.14-.56 4.26-1.5 6.18zm5.5-.38c.2-.15.4-.32.6-.5.3-.3.55-.63.76-.98-.34-.38-.6-.8-.8-1.28-.1-.25-.17-.5-.23-.77-.05-.28-.1-.56-.1-.84-.07-.8-.04-1.6.07-2.37.05-.36.12-.73.2-1.1v-.02l-1.63-1.64c-.12.4-.23.82-.32 1.23-.1.48-.2.96-.26 1.45-.1.76-.13 1.53-.1 2.3.04.53.1 1.08.22 1.6.17.72.46 1.4.87 2.02.2.32.44.62.7.9zm-9.05-2.88l-1.72-1.72v-.47c0-.45-.1-.9-.22-1.32-.13-.44-.32-.87-.55-1.28l-.24-.4-.16-.26-.05-.1c-.06-.12-.1-.25-.1-.4 0-.24.1-.48.26-.66.1-.1.23-.18.36-.27.1-.04.22-.06.34-.07h.1c.23.02.42.1.6.23.05.04.1.1.14.16.07.1.13.2.2.28.15.25.3.5.43.75.28.52.5 1.1.66 1.67.17.68.26 1.4.23 2.1-.02.6-.12 1.18-.28 1.75z" />
    <circle fill="#00C0FF" fill-opacity=".13" cx="22.02" cy="22.02" r="13" />
    <path fill="#FB5968"
		  d="M22.02 17.4l.64-.65c.96-.96 2.5-1.73 3.86-1.73 1.37 0 2.68.54 3.64 1.5l.3.3c.96.96 1.5 2.27 1.5 3.64 0 1.36-.54 2.67-1.5 3.64l-2.12 2.1.43-.42-4.47 4.47c-1.26 1.26-3.3 1.26-4.56 0l-5.5-5.5h-.02l-.63-.65c-.98-.97-1.52-2.28-1.52-3.64 0-1.37.54-2.68 1.5-3.64l.3-.3c.96-.96 2.27-1.5 3.63-1.5 1.38 0 2.9.77 3.88 1.73l.64.64z" />
    <circle stroke="#565660" stroke-width="2" cx="22" cy="22" r="22" />
    <circle stroke="#72727B" stroke-width="3" cx="22" cy="22" r="19.5" />
    <circle stroke="#565660" stroke-width="2" cx="22" cy="22" r="17" />
  </g>
</svg>